Episode Synopsis:
Peter and Neal work from different angles as they attempt to stop a thieving duo bent on going out in a hail of bullets rather than watch their whirlwind relationship fade away behind bars

Screens:
 
http://imageshack.us/a/img837/9072/whitecollar151702.jpg
 
http://imageshack.us/a/img145/8937/whitecollar151708.jpg
 
http://imageshack.us/a/img171/7889/whitecollar151800.jpg


Format : Matroska 
Format version : Version 4 / Version 2 
File size : 131 MiB 
Duration : 42mn 30s 
Overall bit rate mode : Variable 
Overall bit rate : 429 Kbps 
Writing application : mkvmerge v6.0.0 ('Coming Up For Air') built on Jan 20 2013 09:52:00 
Writing library : libebml v1.3.0 + libmatroska v1.4.0 

Video 
ID : 1 
Format : AVC 
Format/Info : Advanced Video Codec 
Format profile : High@L5.1 
Format settings, CABAC : Yes 
Format settings, ReFrames : 4 frames 
Codec ID : V_MPEG4/ISO/AVC 
Duration : 42mn 30s 
Bit rate : 384 Kbps 
Width : 720 pixels 
Height : 416 pixels 
Display aspect ratio : 16:9 
Original display aspect ratio : 16:9 
Frame rate mode : Constant 
Frame rate : 23.976 fps 
Color space : YUV 
Chroma subsampling : 4:2:0 
Bit depth : 8 bits 
Scan type : Progressive 
Bits/(Pixel*Frame) : 0.053 
Stream size : 112 MiB (86%) 
Writing library : x264 core
Default : Yes 
Forced : No 

Audio 
ID : 2 
Format : Vorbis 
Format settings, Floor : 1 
Codec ID : A_VORBIS 
Duration : 42mn 30s 
Bit rate mode : Variable 
Bit rate : 51.2 Kbps 
Channel(s) : 2 channels 
Sampling rate : 22.05 KHz 
Compression mode : Lossy 
Stream size : 15.6 MiB (12%) 
Writing library : aoTuV
Language : English 
Default : Yes 
Forced : No 

Text(thanks "honeybunny") 
ID : 3 
Format : UTF-8 
Codec ID : S_TEXT/UTF8 
Codec ID/Info : UTF-8 Plain Text 
Language : English 
Default : Yes 
Forced : No